<!DOCTYPE html>
<html lang="zh-CN">
<head>
  <meta charset="utf-8" />
  <meta name="viewport" content="width=device-width,initial-scale=1" />
  <title>20世纪中华歌坛名人百集珍藏版 - 楼乾贵</title>
  <style>
    html,body{
      height:100%;
      margin:0;
      font-family:"Microsoft YaHei","微软雅黑",Arial,sans-serif;
      background:#fff;
      color:#222;
      scroll-behavior:smooth;
    }
    .container{
      max-width:900px;
      margin:0 auto;
      padding:20px;
      box-sizing:border-box;
    }

    /* 顶部按钮组（图片上方居中） */
    .top-buttons{
      display:flex;
      justify-content:center;
      gap:20px;
      margin-bottom:15px;
    }
    .top-buttons a{
      display:inline-block;
      background-color:#0078d7;
      color:#fff;
      padding:10px 20px;
      border-radius:6px;
      text-decoration:none;
      transition:background 0.3s;
      font-size:15px;
    }
    .top-buttons a:hover{
      background-color:#005fa3;
    }

    /* 图片展示 */
    .images{
      display:flex;
      flex-direction:column;
      align-items:center;
      gap:20px;
      margin-bottom:30px;
    }
    .images img{
      width:100%;
      max-width:800px;
      height:auto;
      border-radius:10px;
      box-shadow:0 6px 14px rgba(0,0,0,0.08);
    }

    h1{
      font-size:20px;
      text-align:center;
      margin:0 0 20px 0;
    }
    .text-block{
      background:rgba(255,255,255,0.9);
      padding:16px;
      border-radius:8px;
      box-shadow:0 6px 18px rgba(0,0,0,0.06);
      white-space:pre-wrap;
      line-height:1.6;
      font-size:14px;
    }
    hr.sep{
      border:0;
      height:1px;
      background:linear-gradient(90deg,transparent,#ddd,transparent);
      margin:20px 0;
    }

    /* 底部按钮 */
    .buttons{
      display:flex;
      justify-content:center;
      gap:20px;
      margin-top:40px;
    }
    .buttons a{
      display:inline-block;
      background-color:#0078d7;
      color:#fff;
      padding:10px 20px;
      border-radius:6px;
      text-decoration:none;
      transition:background 0.3s;
      font-size:15px;
    }
    .buttons a:hover{
      background-color:#005fa3;
    }
  </style>
</head>
<body id="top">

  <div class="container">

    <!-- 顶部按钮（位于图片上方并居中） -->
    <div class="top-buttons">
      <a href="Contents.html#050">返回目录</a>
      <a href="#bottom">一键到底</a>
    </div>

    <!-- 图片展示 -->
    <div class="images" aria-label="相关图片">
      <a href="https://pic.moebox.io/image/Image1.4wy5LU"><img src="https://image.acg.lol/file/2025/10/19/Image1027ea95db5309f62.jpg" alt="Image1" border="0"></a>
<a href="https://pic.moebox.io/image/Image2.4wyTFa"><img src="https://image.acg.lol/file/2025/10/19/Image28bc2f6e17fe84353.jpg" alt="Image2" border="0"></a>
<a href="https://pic.moebox.io/image/Image3.4wyeTl"><img src="https://image.acg.lol/file/2025/10/19/Image3fd1c5cd45cf45370.jpg" alt="Image3" border="0"></a>
    </div>
    
    <h1>20世纪中华歌坛名人百集珍藏版 - 楼乾贵 </h1>

    <div class="text-block">
050-20世纪中华歌坛名人百集珍藏版-楼乾贵[lwg188原创][wav]

专辑：20世纪中华歌坛名人百集珍藏版
演唱：楼乾贵
语言：国语
公司：中国唱片总公司
日期：1998年

本系列系统介绍二十世纪中国歌坛的名人名歌、收录了百余名演唱者的曲目，每位演唱者均选收其代表作品。按民族、美声、通俗不同风格精心编排，曲曲动人，它可以说是本世纪中国声乐发展的缩影，无论欣赏、收藏决不会令您失望！

曲目
01.草原上升起不落的太阳
02.在那遥远的地方
03.教我如何不想他
04.二月里来
05.日落西山
06.春雨
07.小夜曲
08.村庄,我的小村庄
09.鸽子
10.小板凳
11.疑问
12.邮车
13.玛莱卡莱
14.内摩里诺的浪漫曲
15.樱桃时节
16.德里克的小曲
17.焦躁
18.我记得那美妙的瞬间
19.连斯基的咏叹调
    </div>

    <hr class="sep">

    <div class="text-block">
Exact Audio Copy V0.99 prebeta 1 from 25. May 2007

EAC 抓取日志文件从2. 三月 2011, 21:45

楼乾贵 / 20世纪中华歌坛名人百集珍藏版

使用驱动器  ：PIONEER DVD-RW  DVR-115   Adapter: 0  ID: 0

读取模式     : 保护
使用精确流   : 是
废除音频缓冲 : 是
使用 C2 指针 : 否

组合读/写偏移校正              : 48
读取 Lead-In 和 Lead-Out       : 否
用静音填充抓取中丢失偏移的采样 : 是
去除首尾静音块                 : 否
已用接口                       : Win NT 及 2000 本地 Win32 接口

所用输出格式 : 内部 WAV 函数
样本格式     : 44.100 Hz;16 Bit;立体声
使用压缩偏移 : 48


被抓轨 CD 的 TOC

     音轨 |   开始   |   长度   | 起始扇区 | 结尾扇区 
    --------------------------------------------------
       1  |  0:00.00 |  2:29.12 |       0  |   11186  
       2  |  2:29.12 |  2:20.73 |   11187  |   21759  
       3  |  4:50.10 |  4:17.17 |   21760  |   41051  
       4  |  9:07.27 |  3:17.35 |   41052  |   55861  
       5  | 12:24.62 |  1:15.45 |   55862  |   61531  
       6  | 13:40.32 |  4:04.73 |   61532  |   79904  
       7  | 17:45.30 |  3:00.72 |   79905  |   93476  
       8  | 20:46.27 |  2:36.70 |   93477  |  105246  
       9  | 23:23.22 |  2:34.68 |  105247  |  116864  
      10  | 25:58.15 |  2:22.10 |  116865  |  127524  
      11  | 28:20.25 |  3:44.52 |  127525  |  144376  
      12  | 32:05.02 |  2:17.30 |  144377  |  154681  
      13  | 34:22.32 |  2:53.45 |  154682  |  167701  
      14  | 37:16.02 |  4:29.10 |  167702  |  187886  
      15  | 41:45.12 |  2:41.05 |  187887  |  199966  
      16  | 44:26.17 |  2:40.00 |  199967  |  211966  
      17  | 47:06.17 |  2:39.70 |  211967  |  223961  
      18  | 49:46.12 |  3:53.05 |  223962  |  241441  
      19  | 53:39.17 |  6:45.30 |  241442  |  271846  


范围状态及错误

已选择范围

     文件名 E:\20世纪中华歌坛名人百集珍藏版-楼乾贵[lwg188原创]\楼乾贵 - 20世纪中华歌坛名人百集珍藏版.wav

     峰值电平 99.2 %
     范围质量 100.0 %
     复制 CRC 3BAAB702
     复制成功

没有错误发生

状态报告结尾
    </div>

    <!-- 底部按钮 -->
    <div id="bottom" class="buttons">
      <a href="https://url53.ctfile.com/f/25713053-8461897645-370cb6?p=1024" download>下载</a>
      <a href="Contents.html#050">返回目录</a>
      <a href="#top">回到顶部</a>
    </div>

  </div>

</body>
</html>

